<svg xmlns="http://www.w3.org/2000/svg" width="157.269" height="55.453" viewBox="0 0 157.269 55.453">
  <g id="圖層_2" data-name="圖層 2" transform="translate(0.002)" style="isolation: isolate">
    <g id="圖層_2-2" data-name="圖層 2" transform="translate(-0.002 0)">
      <path id="Path_198" data-name="Path 198" d="M463.294,144.81l.049.077c-.032-.012-.064-.022-.094-.037Z" transform="translate(-348.777 -109.026)" fill="#fff"/>
      <path id="Path_199" data-name="Path 199" d="M464.457,95.209c-.185.361-1.322.163-3.311,1.88a9.62,9.62,0,0,0-2.634,3.954,10.841,10.841,0,0,0-.63,2.424,6.645,6.645,0,0,0-.047,1.273c0,.111.2,1.033.079,1.065-.689.185-1.364-.9-1.483-1.483a6.708,6.708,0,0,1,.326-3.561,10.437,10.437,0,0,1,2.916-4.908,7.883,7.883,0,0,1,.811-.615C462.547,94.043,464.62,94.9,464.457,95.209Z" transform="translate(-343.552 -71.24)" fill="#fff"/>
      <path id="Path_200" data-name="Path 200" d="M496.179,106.348c-.086-.03-.178-.057-.269-.079l.146-.109A1.224,1.224,0,0,0,496.179,106.348Z" transform="translate(-373.366 -79.927)" fill="#fff"/>
      <path id="Path_201" data-name="Path 201" d="M460.631,80.323c-.6-1.132-1.767-2.619-2.021-2.35-.133.143.247.494.539,1.038q1.977,3.726.356,9.173A19.521,19.521,0,0,1,452.7,98.218a18.127,18.127,0,0,1-11.743,3.914c-5.246-.069-7.087-1.942-7.272-1.73-.423.806,4.448,3.279,8.755,3.037,5.683-.321,8.416-1.3,11.743-3.912a19.539,19.539,0,0,0,6.808-10.038Q462.608,84.046,460.631,80.323Z" transform="translate(-326.496 -58.681)" fill="#fff"/>
      <path id="Path_202" data-name="Path 202" d="M328.117,95.209c-.183.361-1.32.163-3.309,1.88a9.62,9.62,0,0,0-2.634,3.954,10.98,10.98,0,0,0-.633,2.424,6.849,6.849,0,0,0-.044,1.273c0,.111.2,1.033.077,1.065-.687.185-1.362-.9-1.483-1.483a6.709,6.709,0,0,1,.326-3.561,10.464,10.464,0,0,1,2.916-4.908,7.885,7.885,0,0,1,.811-.615C326.209,94.043,328.282,94.9,328.117,95.209Z" transform="translate(-240.902 -71.24)" fill="#fff"/>
      <path id="Path_203" data-name="Path 203" d="M359.8,106.348c-.086-.03-.178-.057-.269-.079l.146-.109C359.72,106.219,359.76,106.284,359.8,106.348Z" transform="translate(-270.687 -79.927)" fill="#fff"/>
      <path id="Path_204" data-name="Path 204" d="M324.3,80.323c-.6-1.132-1.767-2.619-2.021-2.35-.133.143.247.494.539,1.038q1.977,3.726.356,9.173a19.522,19.522,0,0,1-6.808,10.035,18.127,18.127,0,0,1-11.743,3.914c-5.246-.069-7.09-1.942-7.272-1.73-.423.806,4.448,3.279,8.755,3.037,5.684-.321,8.416-1.3,11.743-3.912a19.553,19.553,0,0,0,6.808-10.038Q326.278,84.046,324.3,80.323Z" transform="translate(-223.854 -58.681)" fill="#fff"/>
      <path id="Path_205" data-name="Path 205" d="M359.8,106.348c-.086-.03-.178-.057-.269-.079l.146-.109C359.72,106.219,359.76,106.284,359.8,106.348Z" transform="translate(-270.687 -79.927)" fill="#fff"/>
      <path id="Path_206" data-name="Path 206" d="M586.424,32.2c-.143-.017-.247.175-.138.264a3.346,3.346,0,0,1,.895,3.608l-1.992,6.388c-.035.109-.072.213-.114.319l-7.969,19.8a3.784,3.784,0,0,1-3.24,2.634l-.227.015a.064.064,0,0,0-.049.062c-.015.166,1.053.415,1.73.376h0A4.206,4.206,0,0,0,578.863,63l7.969-19.8c.042-.1.079-.21.111-.316l1.992-6.388A3.156,3.156,0,0,0,586.424,32.2Z" transform="translate(-431.851 -24.24)" fill="#fff"/>
      <path id="Path_207" data-name="Path 207" d="M557.377,176.116c-.124-.035-.247.133-.143.22a4.635,4.635,0,0,1,1.1,4.853l-.558,1.789a5.779,5.779,0,0,1-5.029,4.072h-.027c-.336.02-.914-.143-.946-.03-.111.405,1.665.8,2.718.741h0a5.814,5.814,0,0,0,5.029-4.095l.558-1.789A4.411,4.411,0,0,0,557.377,176.116Z" transform="translate(-415.423 -132.593)" fill="#fff"/>
      <path id="Path_208" data-name="Path 208" d="M201.555,16.3l-.494,12.746-.917,1.91a.494.494,0,0,1-.937-.247l.63-16.4V14.18a2.051,2.051,0,0,1,1.717,2.115Z" transform="translate(-149.981 -10.676)" fill="#fff"/>
      <path id="Path_209" data-name="Path 209" d="M195.233,15.059a.494.494,0,0,0-.722.316,2.2,2.2,0,0,1-.133.376l-3.272,7.01a2.061,2.061,0,0,1-1.863,1.186h-2.068a1.038,1.038,0,0,0-.917.549l-9.474,17.666L165.5,63.2a2.965,2.965,0,0,1-2.612,1.564H151.8a.494.494,0,0,0-.442.793,2.95,2.95,0,0,0,2.372,1.189h10.893a2.965,2.965,0,0,0,2.612-1.564l11.28-21.036,9.474-17.666a1.038,1.038,0,0,1,.917-.549h2.071a2.061,2.061,0,0,0,1.863-1.186l3.272-7.01a2.056,2.056,0,0,0-.877-2.674Z" transform="translate(-113.878 -11.291)" fill="#fff"/>
      <path id="Path_210" data-name="Path 210" d="M83.466,16.613l-.853,6.514a2.053,2.053,0,0,1-2.039,1.809l-.665.079c-.524,0-1.021.806-1.087,1.324l-.247,2.044-1.3,2.167c-.277.457-.741.213-.667-.316l.741-5.871a1.043,1.043,0,0,1,1.033-.909H79.1a2.053,2.053,0,0,0,2.039-1.809l.853-7.008a2.4,2.4,0,0,0,0-.3A1.877,1.877,0,0,1,83.466,16.613Z" transform="translate(-57.669 -10.796)" fill="#fff"/>
      <path id="Path_211" data-name="Path 211" d="M44.047,111.776l-.116,3.267L30.454,137.759a2.965,2.965,0,0,1-2.55,1.453H17.1a2.945,2.945,0,0,1-2.37-1.189.494.494,0,0,1,.442-.8h11a2.965,2.965,0,0,0,2.55-1.453L42.96,111.781l.168-.282a.494.494,0,0,1,.919.277Z" transform="translate(-11.011 -83.764)" fill="#fff"/>
      <path id="Path_212" data-name="Path 212" d="M308.927,197.92a1.142,1.142,0,0,1-.079.316l-1.483,3.726a1.292,1.292,0,0,1-1.206.793h-65.1a1.357,1.357,0,0,1-.462-.082,1.26,1.26,0,0,0,1.285,1.364h65.091a1.29,1.29,0,0,0,1.206-.793l1.483-3.729a1.218,1.218,0,0,0-.734-1.6Z" transform="translate(-181.14 -149.013)" fill="#fff"/>
      <path id="Path_213" data-name="Path 213" d="M536.22,168.743a5.813,5.813,0,0,0-5.029,4.1l-.559,1.784c-.988,3.212,1.082,6.121,4.235,5.943h0a5.813,5.813,0,0,0,5.029-4.1l.556-1.784C541.458,171.479,539.38,168.553,536.22,168.743Z" transform="translate(-399.322 -127.039)" fill="#fff"/>
      <path id="Path_214" data-name="Path 214" d="M566.039,26.752l-3.459.2a4.242,4.242,0,0,0-3.657,2.98l-2.535,8.142c-.035.109-.064.22-.089.331l-2.629,11.881-1.327,5.965a3.108,3.108,0,0,0,3.165,3.991h0a4.21,4.21,0,0,0,3.544-2.661L563,47.761l4.008-9.983c.042-.106.082-.213.114-.319l1.992-6.385A3.14,3.14,0,0,0,566.039,26.752Z" transform="translate(-415.782 -20.137)" fill="#fff"/>
      <path id="Path_215" data-name="Path 215" d="M442.125,67.8q-2.471-4.354-9.968-4.354a19.028,19.028,0,0,0-11.6,3.707,18.369,18.369,0,0,0-6.837,9.425c-.042.131-.082.247-.119.388q-1.712,5.876,1.549,9.543,2.755,3.059,8.777,3.059a19.222,19.222,0,0,0,11.74-3.682,18.39,18.39,0,0,0,6.81-9.454,16.264,16.264,0,0,0,.576-2.414A9.371,9.371,0,0,0,442.125,67.8Zm-9.279,8.649a10.832,10.832,0,0,1-2.926,5.061,5.962,5.962,0,0,1-3.9,1.594,3.01,3.01,0,0,1-2.9-1.6q-.85-1.6.208-4.942c.03-.091.057-.18.089-.269a10.23,10.23,0,0,1,2.827-4.638,6.009,6.009,0,0,1,3.969-1.614,2.928,2.928,0,0,1,2.815,1.589,5.41,5.41,0,0,1,.126,3.707c-.082.353-.185.727-.311,1.122Z" transform="translate(-310.955 -47.771)" fill="#fff"/>
      <path id="Path_216" data-name="Path 216" d="M305.8,67.8q-2.456-4.354-9.966-4.354a19.028,19.028,0,0,0-11.6,3.707,18.37,18.37,0,0,0-6.837,9.425c-.084.269-.163.536-.23.8q-1.483,5.592,1.661,9.143,2.75,3.059,8.777,3.059A19.222,19.222,0,0,0,299.35,85.9a18.348,18.348,0,0,0,6.543-8.673c.094-.247.18-.514.264-.776Q307.779,71.31,305.8,67.8ZM293.6,81.523a5.858,5.858,0,0,1-3.9,1.584,2.976,2.976,0,0,1-2.9-1.606,5.684,5.684,0,0,1-.074-3.954q.119-.474.282-.988a10.438,10.438,0,0,1,2.916-4.908,6.019,6.019,0,0,1,3.966-1.614,2.933,2.933,0,0,1,2.817,1.589q.84,1.589-.185,4.836c-.114.361-.235.707-.361,1.038A9.8,9.8,0,0,1,293.6,81.523Z" transform="translate(-208.323 -47.771)" fill="#fff"/>
      <path id="Path_217" data-name="Path 217" d="M79.1,2.965l-3.272,7a2.061,2.061,0,0,1-1.863,1.186H71.906a1.038,1.038,0,0,0-.917.549L61.515,29.364,50.228,50.41a2.965,2.965,0,0,1-2.612,1.564H36.723A2.965,2.965,0,0,1,33.758,48.9l.811-21.825.138-3.721a1.043,1.043,0,0,0-1.937-.571l-2.224,3.746L16.307,50.511a2.965,2.965,0,0,1-2.55,1.453H2.963A2.965,2.965,0,0,1,.011,48.722L2.645,20.463l.764-8.174A1.04,1.04,0,0,0,2.37,11.149H2.123A2.058,2.058,0,0,1,.075,8.9l.7-7.015A2.053,2.053,0,0,1,2.818.03h1.73V0H19.806V.03h1.072a2.053,2.053,0,0,1,2.039,2.3l-.855,7.008a2.053,2.053,0,0,1-2.049,1.809H19.3a1.043,1.043,0,0,0-1.013.909L16.745,24.1v.015a1.043,1.043,0,0,0,1.932.647l.133-.227L32.475,1.455A2.965,2.965,0,0,1,35.023,0H46.39a2.053,2.053,0,0,1,2.053,2.135l-.853,22.138a1.043,1.043,0,0,0,1.977.509l6.123-12.121a1.018,1.018,0,0,0,.114-.47,1.043,1.043,0,0,0-1.045-1.043A1.043,1.043,0,0,1,53.8,9.714l3.417-8.4A2.058,2.058,0,0,1,59.116.03h2.953L62.081,0H77.254l-.015.03A2.056,2.056,0,0,1,79.1,2.965Z" transform="translate(0.002 0)" fill="#fff"/>
      <path id="Path_218" data-name="Path 218" d="M350.03,199.289a1.062,1.062,0,0,0,.675-.247,2.337,2.337,0,0,0,.591-.89,1.121,1.121,0,0,0,.138-.788.437.437,0,0,0-.457-.247,1.055,1.055,0,0,0-.662.247,2.153,2.153,0,0,0-.576.835,1.243,1.243,0,0,0-.158.83A.425.425,0,0,0,350.03,199.289Z" transform="translate(-263.176 -148.405)" fill="#fff"/>
      <path id="Path_219" data-name="Path 219" d="M372.468,197.644a.685.685,0,0,0,.267-.3.361.361,0,0,0,.02-.3c-.04-.084-.168-.126-.378-.126h-.116a.3.3,0,0,0-.277.183l-.294.67h.277A.939.939,0,0,0,372.468,197.644Z" transform="translate(-279.842 -148.252)" fill="#fff"/>
      <path id="Path_220" data-name="Path 220" d="M455.527,197.628h.012a2.128,2.128,0,0,0,.324-.054.511.511,0,0,0,.247-.119.578.578,0,0,0,.168-.222.287.287,0,0,0,.012-.284c-.047-.064-.173-.1-.378-.1h-.3a.3.3,0,0,0-.277.183l-.074.168a.3.3,0,0,0,.267.427Z" transform="translate(-342.741 -148.207)" fill="#fff"/>
      <path id="Path_221" data-name="Path 221" d="M433.592,199.289a1.06,1.06,0,0,0,.672-.247,2.337,2.337,0,0,0,.591-.89,1.121,1.121,0,0,0,.138-.788.437.437,0,0,0-.457-.247,1.055,1.055,0,0,0-.662.247,2.154,2.154,0,0,0-.576.835,1.243,1.243,0,0,0-.158.83A.425.425,0,0,0,433.592,199.289Z" transform="translate(-326.088 -148.405)" fill="#fff"/>
      <path id="Path_222" data-name="Path 222" d="M302.924,190.1a1.236,1.236,0,0,0-1.206-1.678h-65.09a1.292,1.292,0,0,0-1.206.793l-1.483,3.726a1.236,1.236,0,0,0,1.206,1.678h65.088a1.29,1.29,0,0,0,1.206-.793Zm-12,3.037,1.411-3.212a.306.306,0,0,1,.279-.183h2.375a.3.3,0,0,1,.279.427l-.091.208a.306.306,0,0,1-.279.18h-1.5a.3.3,0,1,0,0,.608h.835a.3.3,0,0,1,.277.425l-.074.173a.306.306,0,0,1-.279.18H292.78a.3.3,0,0,0-.277.183l-.064.146a.3.3,0,0,0,.277.425h1.028a.3.3,0,0,1,.279.425l-.114.247a.306.306,0,0,1-.279.183H291.2a.3.3,0,0,1-.277-.415Zm-4.483,0,1.411-3.212a.3.3,0,0,1,.277-.183h1.693a2.268,2.268,0,0,1,.764.094.467.467,0,0,1,.294.348,1,1,0,0,1-.1.618,1.747,1.747,0,0,1-.371.549,2.013,2.013,0,0,1-.524.376,2.052,2.052,0,0,1-.465.151.643.643,0,0,1,.235.141.654.654,0,0,1,.094.2,1.078,1.078,0,0,1,.054.247l.044.786a.3.3,0,0,1-.3.321h-.68a.306.306,0,0,1-.3-.279l-.069-.887a.551.551,0,0,0-.077-.294.307.307,0,0,0-.247-.089h-.1l-.6,1.367a.3.3,0,0,1-.277.183h-.477a.3.3,0,0,1-.269-.435Zm-7.942,0,.89-2.026a.3.3,0,0,0-.277-.425h-.227a.3.3,0,0,1-.277-.427l.146-.334a.306.306,0,0,1,.279-.183h2.785a.3.3,0,0,1,.277.427l-.148.334a.3.3,0,0,1-.277.183h-.761a.3.3,0,0,0-.277.18l-1.1,2.513a.307.307,0,0,1-.279.183h-.47a.3.3,0,0,1-.279-.425Zm-7.868-.208a.828.828,0,0,1,.778-.652.521.521,0,0,1,.526.652.835.835,0,0,1-.781.652.521.521,0,0,1-.524-.652Zm-4.638.208,1.411-3.212a.3.3,0,0,1,.277-.183h1.688c.41,0,.672.1.788.3a.981.981,0,0,1-.074.87,2.08,2.08,0,0,1-.741.9,2.034,2.034,0,0,1-1.164.324h-.423a.3.3,0,0,0-.277.183l-.465,1.053a.3.3,0,0,1-.277.183h-.472a.3.3,0,0,1-.272-.425Zm-10,.022,1.411-3.212a.306.306,0,0,1,.279-.183h.47a.306.306,0,0,1,.279.428l-.215.494a.3.3,0,0,0,.279.425h.576a.3.3,0,0,0,.277-.18l.43-.974a.3.3,0,0,1,.277-.183h.477a.3.3,0,0,1,.277.427l-1.411,3.212a.3.3,0,0,1-.277.183h-.477a.3.3,0,0,1-.287-.437l.3-.694a.3.3,0,0,0-.279-.425H257.8a.3.3,0,0,0-.277.18l-.519,1.181a.307.307,0,0,1-.279.183h-.47a.3.3,0,0,1-.269-.425Zm-14.251.346a.628.628,0,0,1-.319-.358.949.949,0,0,1-.049-.339.3.3,0,0,1,.264-.287l.457-.059a.309.309,0,0,1,.341.289.269.269,0,0,0,.032.106.284.284,0,0,0,.267.124.672.672,0,0,0,.41-.156,1.047,1.047,0,0,0,.321-.418.526.526,0,0,0,.049-.413.292.292,0,0,0-.294-.146c-.079,0-.269.091-.358.064-.131-.042.133-.63.324-.727a.618.618,0,0,1,.19-.025.677.677,0,0,0,.4-.129.776.776,0,0,0,.272-.314.319.319,0,0,0,.022-.279.247.247,0,0,0-.23-.1.583.583,0,0,0-.343.114.938.938,0,0,0-.22.23.309.309,0,0,1-.309.126l-.18-.037a.3.3,0,0,1-.156-.512,2.288,2.288,0,0,1,.437-.326,2.177,2.177,0,0,1,1.082-.247c.477,0,.783.094.914.279a.667.667,0,0,1,.012.7,1.341,1.341,0,0,1-.326.45,2.142,2.142,0,0,1-.546.351.719.719,0,0,1,.269.128.454.454,0,0,1,.148.309.968.968,0,0,1-.1.457,2.161,2.161,0,0,1-2.041,1.275A1.664,1.664,0,0,1,241.74,193.51Zm4.188-.059a.857.857,0,0,1-.376-.638,2.145,2.145,0,0,1,.247-1.166,3.444,3.444,0,0,1,1.124-1.455,2.654,2.654,0,0,1,1.594-.509,1.28,1.28,0,0,1,.964.292.934.934,0,0,1,.21.65.314.314,0,0,1-.247.311s-.694.247-.793.106a.667.667,0,0,1-.082-.2.358.358,0,0,0-.141-.208.474.474,0,0,0-.277-.074,1.063,1.063,0,0,0-.741.324,2.225,2.225,0,0,0-.494.741,1.494,1.494,0,0,0-.2.87.388.388,0,0,0,.418.247.926.926,0,0,0,.576-.19,1.906,1.906,0,0,0,.358-.371.3.3,0,0,1,.346-.1l.247.091a.306.306,0,0,1,.124.494,3.049,3.049,0,0,1-.376.381,2.518,2.518,0,0,1-.729.44,2.416,2.416,0,0,1-.877.148,1.759,1.759,0,0,1-.877-.188Zm5.78-.188a1.05,1.05,0,0,1-.054-.741.309.309,0,0,1,.279-.232l.519-.032a.3.3,0,0,1,.321.294.394.394,0,0,0,.017.1c.047.153.18.232.4.232a.764.764,0,0,0,.425-.119.65.65,0,0,0,.247-.274.274.274,0,0,0,0-.267q-.074-.119-.482-.222a1.431,1.431,0,0,1-.862-.462.741.741,0,0,1,0-.741,1.747,1.747,0,0,1,.408-.556,2.013,2.013,0,0,1,.675-.413,2.762,2.762,0,0,1,.969-.148,1.289,1.289,0,0,1,.954.272.709.709,0,0,1,.119.635.306.306,0,0,1-.282.247l-.526.032a.3.3,0,0,1-.321-.247.247.247,0,0,0-.044-.116.373.373,0,0,0-.324-.116.638.638,0,0,0-.339.086.494.494,0,0,0-.193.212.166.166,0,0,0,0,.163c.032.052.138.1.321.141a3.106,3.106,0,0,1,.917.339.618.618,0,0,1,.282.423,1.062,1.062,0,0,1-.1.566,2.09,2.09,0,0,1-.494.677,2.25,2.25,0,0,1-.741.47,2.641,2.641,0,0,1-.956.161C252.218,193.631,251.84,193.51,251.709,193.262Zm9.926.171a.86.86,0,0,1-.373-.652,2.223,2.223,0,0,1,.247-1.114,3.281,3.281,0,0,1,2.058-1.913l.062-.012q1.483-.215,1.831.46a1.674,1.674,0,0,1-.133,1.433,3.876,3.876,0,0,1-.7,1.1,2.943,2.943,0,0,1-.919.667,2.659,2.659,0,0,1-1.124.247,1.73,1.73,0,0,1-.949-.222Zm12.128-.171a1.035,1.035,0,0,1-.054-.741.309.309,0,0,1,.277-.232l.521-.032a.3.3,0,0,1,.321.294.555.555,0,0,0,.015.1c.049.153.183.232.4.232a.764.764,0,0,0,.425-.119.628.628,0,0,0,.247-.274.269.269,0,0,0,0-.267c-.049-.079-.21-.153-.494-.222a1.423,1.423,0,0,1-.86-.462.741.741,0,0,1,0-.741,1.71,1.71,0,0,1,.408-.556,2.013,2.013,0,0,1,.675-.413,2.762,2.762,0,0,1,.969-.148,1.282,1.282,0,0,1,.951.272.694.694,0,0,1,.119.635.3.3,0,0,1-.279.247l-.526.032a.3.3,0,0,1-.321-.247.273.273,0,0,0-.044-.116.378.378,0,0,0-.326-.116.635.635,0,0,0-.336.086.494.494,0,0,0-.193.213.158.158,0,0,0,0,.163q.047.077.319.141a3.049,3.049,0,0,1,.917.339.613.613,0,0,1,.284.423,1.063,1.063,0,0,1-.1.566,2.09,2.09,0,0,1-.494.677,2.274,2.274,0,0,1-.741.47,2.641,2.641,0,0,1-.956.161C274.272,193.631,273.894,193.51,273.763,193.262Zm8.52.171a.86.86,0,0,1-.373-.652,2.224,2.224,0,0,1,.247-1.114,3.279,3.279,0,0,1,2.061-1.913l.059-.012q1.483-.215,1.831.46a1.674,1.674,0,0,1-.133,1.433,3.875,3.875,0,0,1-.7,1.1,2.943,2.943,0,0,1-.919.667,2.659,2.659,0,0,1-1.124.247,1.729,1.729,0,0,1-.949-.222Z" transform="translate(-176.069 -141.864)" fill="#fff"/>
    </g>
  </g>
</svg>
