<svg xmlns="http://www.w3.org/2000/svg" width="95.462" height="16" viewBox="0 0 95.462 16">
  <g id="Group_72" data-name="Group 72" transform="translate(-1068.093 -231.719)">
    <path id="Icon_ionic-md-star-half" data-name="Icon ionic-md-star-half" d="M19.8,10.6l-5.753-.52L11.8,4.5,9.55,10.081,3.8,10.6l4.364,3.98L6.853,20.5,11.8,17.362,16.741,20.5l-1.308-5.919Zm-7.345,5.62L11.8,15.8V7.918l1.08,2.682.3.74.761.069,2.766.25-2.1,1.914-.577.526.173.783.629,2.846Z" transform="translate(1124.172 227.219)" fill="#0078e9"/>
    <path id="Icon_ionic-md-star-outline" data-name="Icon ionic-md-star-outline" d="M19.8,10.6l-5.753-.52L11.8,4.5,9.55,10.081,3.8,10.6l4.364,3.98L6.853,20.5,11.8,17.362,16.741,20.5l-1.308-5.919Zm-7.345,5.62L11.8,15.8l-.655.416L8.766,17.728,9.4,14.883l.173-.783-.577-.527-2.1-1.914,2.766-.25.761-.069.3-.74L11.8,7.918l1.08,2.682.3.74.761.069,2.766.25-2.1,1.914-.577.527.173.783.629,2.846Z" transform="translate(1143.758 227.219)" fill="#0078e9"/>
    <path id="Icon_ionic-md-star" data-name="Icon ionic-md-star" d="M11.8,17.362,16.741,20.5l-1.308-5.919L19.8,10.6l-5.753-.52L11.8,4.5,9.55,10.081,3.8,10.6l4.364,3.98L6.853,20.5Z" transform="translate(1064.296 227.219)" fill="#0078e9"/>
    <path id="Icon_ionic-md-star-2" data-name="Icon ionic-md-star" d="M11.8,17.362,16.741,20.5l-1.308-5.919L19.8,10.6l-5.753-.52L11.8,4.5,9.55,10.081,3.8,10.6l4.364,3.98L6.853,20.5Z" transform="translate(1104.028 227.219)" fill="#0078e9"/>
    <path id="Icon_ionic-md-star-3" data-name="Icon ionic-md-star" d="M11.8,17.362,16.741,20.5l-1.308-5.919L19.8,10.6l-5.753-.52L11.8,4.5,9.55,10.081,3.8,10.6l4.364,3.98L6.853,20.5Z" transform="translate(1084.442 227.219)" fill="#0078e9"/>
  </g>
</svg>
